<svg width="24" height="25" viewBox="0 0 24 25" fill="none" xmlns="http://www.w3.org/2000/svg">
<g clip-path="url(#clip0_25_570)">
<path d="M6 13.723L8.45 17.2C8.54293 17.3388 8.66768 17.4534 8.81385 17.5343C8.96002 17.6152 9.12339 17.66 9.29037 17.665C9.45735 17.67 9.6231 17.635 9.77384 17.563C9.92458 17.491 10.0559 17.384 10.157 17.251L18 7.328" stroke="#FAFAFA" stroke-width="1.59375" stroke-linecap="round" stroke-linejoin="round"/>
<path d="M0.75 12.4989C0.75 15.4826 1.93526 18.3441 4.04505 20.4539C6.15483 22.5636 9.01631 23.7489 12 23.7489C14.9837 23.7489 17.8452 22.5636 19.955 20.4539C22.0647 18.3441 23.25 15.4826 23.25 12.4989C23.25 9.51522 22.0647 6.65373 19.955 4.54395C17.8452 2.43417 14.9837 1.2489 12 1.2489C9.01631 1.2489 6.15483 2.43417 4.04505 4.54395C1.93526 6.65373 0.75 9.51522 0.75 12.4989Z" stroke="#FAFAFA" stroke-width="1.59375" stroke-linecap="round" stroke-linejoin="round"/>
</g>
<defs>
<clipPath id="clip0_25_570">
<rect width="24" height="24" fill="white" transform="translate(0 0.5)"/>
</clipPath>
</defs>
</svg>
