<svg width="24" height="25" viewBox="0 0 24 25" fill="none" xmlns="http://www.w3.org/2000/svg">
<path d="M8.73053 22.9257V19.1963C8.73053 18.2443 9.50793 17.4726 10.4669 17.4726H13.9724C14.4329 17.4726 14.8745 17.6542 15.2002 17.9774C15.5258 18.3007 15.7087 18.7391 15.7087 19.1963V22.9257C15.7058 23.3214 15.8622 23.702 16.1431 23.9829C16.424 24.2638 16.8062 24.4217 17.2049 24.4217H19.5965C20.7134 24.4246 21.7856 23.9861 22.5765 23.2031C23.3673 22.42 23.8118 21.3567 23.8118 20.2479V9.62356C23.8118 8.72785 23.4118 7.87822 22.7197 7.30356L14.5839 0.853071C13.1687 -0.277919 11.141 -0.241402 9.76798 0.9398L1.81784 7.30356C1.09304 7.86128 0.659835 8.71343 0.638428 9.62356V20.2371C0.638428 22.5482 2.52569 24.4217 4.85375 24.4217H7.19074C8.01881 24.4217 8.69177 23.7585 8.69777 22.9365L8.73053 22.9257Z" fill="#7C5AED"/>
</svg>
