<svg width="26" height="25" viewBox="0 0 26 25" fill="none" xmlns="http://www.w3.org/2000/svg">
<path d="M11.6066 0.578125C14.6345 0.578125 17.1039 3.00523 17.1039 5.99337V11.8355H9.65837C9.12477 11.8355 8.70286 12.2502 8.70286 12.7746C8.70286 13.2869 9.12477 13.7138 9.65837 13.7138H17.1039V19.5437C17.1039 22.5318 14.6345 24.9711 11.5818 24.9711H5.53851C2.49825 24.9711 0.0288086 22.544 0.0288086 19.5559V6.00557C0.0288086 3.00523 2.51065 0.578125 5.55092 0.578125H11.6066ZM20.2021 8.56708C20.568 8.18899 21.1656 8.18899 21.5315 8.55488L25.0929 12.1041C25.2758 12.287 25.3734 12.5187 25.3734 12.7749C25.3734 13.0188 25.2758 13.2627 25.0929 13.4335L21.5315 16.9827C21.3485 17.1656 21.1046 17.2632 20.8729 17.2632C20.6289 17.2632 20.385 17.1656 20.2021 16.9827C19.8362 16.6168 19.8362 16.0191 20.2021 15.6532L22.1535 13.714H17.1042V11.8357H22.1535L20.2021 9.8965C19.8362 9.5306 19.8362 8.93297 20.2021 8.56708Z" fill="#FAFAFA"/>
</svg>
