<svg width="24" height="24" viewBox="0 0 24 24" fill="none" xmlns="http://www.w3.org/2000/svg">
<g clip-path="url(#clip0_71_1330)">
<path d="M17.9995 0H6.00052C2.68537 0 0 2.68658 0 6.00051V17.9995C0 21.3134 2.68537 24 6.00052 24H17.9995C21.325 24 24 21.3134 24 17.9995V6.00051C24 2.68658 21.3146 0 17.9995 0ZM17.9995 1.77001C18.5614 1.7748 19.1168 1.88804 19.6341 2.10327C20.1513 2.3185 20.6202 2.63149 21.0139 3.02436C21.4077 3.41723 21.7186 3.88228 21.9289 4.39294C22.1392 4.9036 22.2448 5.44986 22.2395 6.00051V17.9995C22.2448 18.5501 22.1392 19.0964 21.9289 19.6071C21.7186 20.1177 21.4077 20.5828 21.0139 20.9756C20.6202 21.3685 20.1513 21.6815 19.6341 21.8967C19.1168 22.112 18.5614 22.2252 17.9995 22.23H6.00052C4.86713 22.2182 3.78487 21.766 2.99143 20.9728C2.19799 20.1796 1.75824 19.1102 1.76877 17.9995V6.00051C1.75824 4.88981 2.19799 3.82042 2.99143 3.02721C3.78487 2.234 4.86713 1.78183 6.00052 1.77001H17.9995Z" fill="#7C5AED"/>
<g clip-path="url(#clip1_71_1330)">
<path d="M4.54639 11.7284C4.54639 13.7175 5.33656 15.6252 6.74309 17.0317C8.14961 18.4382 10.0573 19.2284 12.0464 19.2284C14.0355 19.2284 15.9432 18.4382 17.3497 17.0317C18.7562 15.6252 19.5464 13.7175 19.5464 11.7284C19.5464 9.73927 18.7562 7.83162 17.3497 6.42509C15.9432 5.01857 14.0355 4.22839 12.0464 4.22839C10.0573 4.22839 8.14961 5.01857 6.74309 6.42509C5.33656 7.83162 4.54639 9.73927 4.54639 11.7284Z" stroke="#7C5AED" stroke-width="1.25" stroke-linecap="round" stroke-linejoin="round"/>
<path d="M6.89109 10.8824C6.67036 11.1095 6.54688 11.4137 6.54688 11.7304C6.54688 12.0471 6.67036 12.3513 6.89109 12.5784C7.92509 13.6151 9.77376 15.2337 12.0464 15.2337C14.3191 15.2337 16.1678 13.6157 17.2024 12.5791C17.423 12.3519 17.5464 12.0477 17.5464 11.7311C17.5464 11.4144 17.423 11.1102 17.2024 10.8831C16.1684 9.84638 14.3171 8.22705 12.0464 8.22705C9.77576 8.22705 7.92576 9.84505 6.89109 10.8824Z" stroke="#7C5AED" stroke-width="1.25" stroke-linecap="round" stroke-linejoin="round"/>
<path d="M10.5464 11.7284C10.5464 12.1262 10.7044 12.5077 10.9857 12.7891C11.267 13.0704 11.6486 13.2284 12.0464 13.2284C12.4442 13.2284 12.8257 13.0704 13.107 12.7891C13.3884 12.5077 13.5464 12.1262 13.5464 11.7284C13.5464 11.3306 13.3884 10.949 13.107 10.6677C12.8257 10.3864 12.4442 10.2284 12.0464 10.2284C11.6486 10.2284 11.267 10.3864 10.9857 10.6677C10.7044 10.949 10.5464 11.3306 10.5464 11.7284Z" stroke="#7C5AED" stroke-width="1.25" stroke-linecap="round" stroke-linejoin="round"/>
</g>
</g>
<defs>
<clipPath id="clip0_71_1330">
<rect width="24" height="24" fill="white"/>
</clipPath>
<clipPath id="clip1_71_1330">
<rect width="16" height="16" fill="white" transform="translate(4.04639 3.72839)"/>
</clipPath>
</defs>
</svg>
