<svg width="82" height="82" viewBox="0 0 82 82" fill="none" xmlns="http://www.w3.org/2000/svg">
<g clip-path="url(#clip0_35_289)">
<path d="M51.25 2.5625H5.125C3.70977 2.5625 2.5625 3.70977 2.5625 5.125V56.375C2.5625 57.7902 3.70977 58.9375 5.125 58.9375H51.25C52.6652 58.9375 53.8125 57.7902 53.8125 56.375V5.125C53.8125 3.70977 52.6652 2.5625 51.25 2.5625Z" stroke="#BBBDBF" stroke-width="5.125" stroke-linecap="round" stroke-linejoin="round"/>
<path d="M53.8125 43.5625H2.5625" stroke="#BBBDBF" stroke-width="5.125" stroke-linecap="round" stroke-linejoin="round"/>
<path d="M64.0796 21.2893L77.6848 25.8232C78.004 25.9298 78.2992 26.0981 78.5533 26.3187C78.8075 26.5393 79.0158 26.8079 79.1661 27.109C79.3165 27.4101 79.4061 27.7378 79.4298 28.0736C79.4535 28.4093 79.4109 28.7464 79.3043 29.0656L63.099 77.6848C62.9925 78.0041 62.8241 78.2992 62.6035 78.5534C62.3829 78.8076 62.1144 79.0158 61.8133 79.1662C61.5122 79.3166 61.1844 79.4062 60.8487 79.4299C60.5129 79.4536 60.1758 79.4109 59.8566 79.3043L23.0796 67.0453" stroke="#BBBDBF" stroke-width="5.125" stroke-linecap="round" stroke-linejoin="round"/>
<path d="M17.9375 43.5625L32.1167 23.2948C32.5621 22.6566 33.1471 22.1282 33.8271 21.7498C34.5072 21.3713 35.2646 21.1527 36.0417 21.1105C36.8189 21.0684 37.5954 21.2038 38.3125 21.5065C39.0295 21.8092 39.6681 22.2712 40.18 22.8575L53.8125 38.4375" stroke="#BBBDBF" stroke-width="5.125" stroke-linecap="round" stroke-linejoin="round"/>
<path d="M17.2986 23.0659C20.4838 23.0659 23.0659 20.4838 23.0659 17.2986C23.0659 14.1134 20.4838 11.5312 17.2986 11.5312C14.1134 11.5312 11.5312 14.1134 11.5312 17.2986C11.5312 20.4838 14.1134 23.0659 17.2986 23.0659Z" stroke="#BBBDBF" stroke-width="5.125" stroke-linecap="round" stroke-linejoin="round"/>
</g>
<defs>
<clipPath id="clip0_35_289">
<rect width="82" height="82" fill="white"/>
</clipPath>
</defs>
</svg>
